<?xml version="1.0" standalone="no"?><!DOCTYPE svg PUBLIC "-//W3C//DTD SVG 1.1//EN" "http://www.w3.org/Graphics/SVG/1.1/DTD/svg11.dtd"><svg t="1527172667610" class="icon" style="" viewBox="0 0 1024 1024" version="1.1" xmlns="http://www.w3.org/2000/svg" p-id="3985" xmlns:xlink="http://www.w3.org/1999/xlink" width="30" height="30"><defs><style type="text/css"></style></defs><path d="M677.888 717.1072c226.2528-39.4496 344.2176-310.656 344.2176-553.728h-185.6512c10.9824-78.3872 17.8432-141.4656 17.8432-163.3792H172.6208c3.7888 41.9072 8.9344 99.4816 15.9744 163.3792H1.8688c0 246.3744 119.5776 517.1712 350.6176 554.368 36.6592 47.0528 63.8976 66.688 95.0016 77.44v54.5024h-131.9168L216.6016 1024h593.7152l-98.944-174.3104h-131.9424v-54.5024c28.5184-7.2448 65.28-37.888 98.4576-78.08z m66.4576-107.0592c28.2368-65.7664 60.3136-236.032 82.5344-381.312h68.736c0 204.9024-89.4208 357.8112-154.8032 389.0432 1.152-2.5856 2.432-5.1712 3.5328-7.7312zM128.64 228.7616h67.6096c18.176 146.0736 46.1568 307.6352 89.4208 389.248-66.2784-30.6176-157.0304-184.3712-157.0304-389.248zM399.9744 542.464v-25.856c0-18.1504 3.328-34.7136 10.0352-49.7152 6.656-15.0016 15.8464-28.9792 27.5456-41.9584s29.8496-28.16 54.4512-45.568c22.5024-16.7936 38.2464-31.6928 47.2576-44.672s13.4912-26.7264 13.4912-41.2928c0-31.36-17.1008-47.0272-51.3024-47.0272-30.0032 0-58.6496 12.0064-85.9392 35.9936V217.5744c30.4384-19.6608 64.64-29.4656 102.6048-29.4656 34.7904 0 62.336 8.8832 82.5856 26.6752s30.3872 42.2656 30.3872 73.472c0 17.408-2.9184 33.1008-8.7808 47.1296s-14.336 27.1872-25.4208 39.4752-28.8768 27.0848-53.3248 44.3136c-23.552 16.7936-39.3728 29.7728-47.4624 38.9376s-12.16 17.1008-12.16 23.8592h147.8144v60.5184h-231.7824z" fill="#cdcdcd" p-id="3986"></path></svg>