<?xml version="1.0" standalone="no"?><!DOCTYPE svg PUBLIC "-//W3C//DTD SVG 1.1//EN" "http://www.w3.org/Graphics/SVG/1.1/DTD/svg11.dtd"><svg t="1527172683024" class="icon" style="" viewBox="0 0 1024 1024" version="1.1" xmlns="http://www.w3.org/2000/svg" p-id="4818" xmlns:xlink="http://www.w3.org/1999/xlink" width="30" height="30"><defs><style type="text/css"></style></defs><path d="M657.213 692.01c198.527-34.618 302.065-272.62 302.065-485.913H796.361c9.62-68.77 15.646-124.14 15.646-143.373H213.834c3.317 36.776 7.833 87.304 14.016 143.373H63.993c0 216.193 104.93 453.824 307.677 486.46 32.153 41.289 56.08 58.536 83.364 67.989v47.786h-115.77l-86.838 152.96h520.99L686.58 808.333H570.805v-47.786c25.028-6.397 57.28-33.258 86.408-68.536z m58.318-93.97c24.752-57.707 52.938-207.107 72.41-334.572h60.302c0 179.8-78.46 313.974-135.834 341.377 1.042-2.277 2.14-4.551 3.122-6.805zM175.244 263.469h59.318c15.94 128.166 40.496 269.923 78.457 341.552-58.14-26.843-137.775-161.753-137.775-341.552z m308.57 306.269c-37.272 0-67.291-6.161-90.058-18.48v-66.666c24.17 18.092 52.399 27.135 84.679 27.135 20.427 0 36.645-4.521 48.654-13.567 12.007-9.042 18.012-21.908 18.012-38.596 0-17.153-7.134-30.252-21.403-39.298-14.268-9.042-34.269-13.567-60-13.567h-32.28v-58.246h29.708c48.655 0 72.983-16.374 72.983-49.123 0-30.877-18.637-46.315-55.906-46.315-24.327 0-47.953 7.953-70.878 23.859v-62.458c24.95-12.941 54.346-19.415 88.188-19.415 34.305 0 62.142 7.917 83.508 23.743 21.363 15.83 32.047 37.777 32.047 65.848 0 47.408-24.017 77.193-72.047 89.357v1.17c25.263 2.806 45.457 12.046 60.585 27.719 15.124 15.672 22.69 34.736 22.69 57.192 0 34.467-12.595 61.367-37.778 80.702-25.188 19.339-58.755 29.006-100.703 29.006z" fill="#A67D3D" p-id="4819"></path></svg>