<?xml version="1.0" standalone="no"?><!DOCTYPE svg PUBLIC "-//W3C//DTD SVG 1.1//EN" "http://www.w3.org/Graphics/SVG/1.1/DTD/svg11.dtd"><svg t="1532415727831" class="icon" style="" viewBox="0 0 1024 1024" version="1.1" xmlns="http://www.w3.org/2000/svg" p-id="1457" xmlns:xlink="http://www.w3.org/1999/xlink" width="30" height="30"><defs><style type="text/css"></style></defs><path d="M801.8 548.1H486.3c-14.5 0-26.3-11.7-26.3-26.3 0-14.5 11.7-26.3 26.3-26.3h322.4l-67-67c-10.3-10.2-10.3-26.8 0-37.2 10.3-10.3 27-10.2 37.2 0l98.1 98.1c5 1 9.8 3.3 13.6 7.2 6 6 8.5 14.1 7.5 21.8 1 7.7-1.5 15.8-7.5 21.8-3.9 3.9-8.6 6.3-13.6 7.2l-98.1 98.1c-10.1 10.1-26.9 10.2-37.2 0-10.3-10.3-10.3-26.9 0-37.2l60.1-60.2z m-78.7-280.6v-87.7c0-38.8-31.4-70.2-70.2-70.2H196.8c-38.7 0-70.2 31.4-70.2 70.2v666.4c0 38.8 31.4 70.2 70.2 70.2h456.1c38.7 0 70.2-31.4 70.2-70.2v-87.7c0-14.5-11.8-26.3-26.3-26.3s-26.3 11.8-26.3 26.3v70.2c0 19.4-15.8 35-34.9 35H214.2c-19.3 0-34.9-15.7-34.9-35V197.3c0-19.3 15.8-35 34.9-35h421.4c19.3 0 34.9 15.6 34.9 35v70.2c0 14.5 11.8 26.3 26.3 26.3s26.3-11.8 26.3-26.3z m0 0" p-id="1458" fill="#31c27c"></path></svg>