<?xml version="1.0" standalone="no"?><!DOCTYPE svg PUBLIC "-//W3C//DTD SVG 1.1//EN" "http://www.w3.org/Graphics/SVG/1.1/DTD/svg11.dtd"><svg t="1526884186462" class="icon" style="" viewBox="0 0 1024 1024" version="1.1" xmlns="http://www.w3.org/2000/svg" p-id="1741" xmlns:xlink="http://www.w3.org/1999/xlink" width="20" height="20"><defs><style type="text/css"></style></defs><path d="M867.2 832l-204.8-204.8c41.6-51.2 67.2-118.4 67.2-188.8 0-163.2-131.2-294.4-294.4-294.4s-294.4 131.2-294.4 294.4 131.2 294.4 294.4 294.4c70.4 0 134.4-25.6 185.6-64l204.8 204.8c12.8 12.8 28.8 12.8 41.6 0s12.8-32 0-41.6zM201.6 438.4c0-131.2 105.6-236.8 236.8-236.8s236.8 105.6 236.8 236.8-105.6 236.8-236.8 236.8-236.8-108.8-236.8-236.8z" fill="#31c27c" p-id="1742"></path></svg>