<?xml version="1.0" standalone="no"?><!DOCTYPE svg PUBLIC "-//W3C//DTD SVG 1.1//EN" "http://www.w3.org/Graphics/SVG/1.1/DTD/svg11.dtd"><svg t="1526884431447" class="icon" style="" viewBox="0 0 1024 1024" version="1.1" xmlns="http://www.w3.org/2000/svg" p-id="2710" xmlns:xlink="http://www.w3.org/1999/xlink" width="20" height="20"><defs><style type="text/css"></style></defs><path d="M512 92a420 420 0 1 1-420 420 420 420 0 0 1 420-420m0-60a480 480 0 1 0 480 480 480 480 0 0 0-480-480z" p-id="2711" fill="#31c27c"></path><path d="M702.8 661.4L554 512l149.4-149.4a30 30 0 0 0-42.6-42L512 469.4 363.8 321.8a30 30 0 0 0-42.6 42.6L468.8 512l-147.6 147.6a30 30 0 0 0 42.6 42.6L512 554.6l149.4 149.4a29.4 29.4 0 0 0 42-42z" p-id="2712" fill="#31c27c"></path></svg>