<?xml version="1.0" standalone="no"?><!DOCTYPE svg PUBLIC "-//W3C//DTD SVG 1.1//EN" "http://www.w3.org/Graphics/SVG/1.1/DTD/svg11.dtd"><svg t="1526626894231" class="icon" style="" viewBox="0 0 1024 1024" version="1.1" xmlns="http://www.w3.org/2000/svg" p-id="3467" xmlns:xlink="http://www.w3.org/1999/xlink" width="20" height="20"><defs><style type="text/css"></style></defs><path d="M706.54871 192.177817c28.112018 0 54.64344 5.915943 78.803969 17.612348 22.896053 11.064168 43.285733 27.028181 60.672282 47.485601 17.18333 20.231621 30.64097 43.940551 40.011643 70.449394 9.528732 26.870121 14.360838 55.162778 14.360838 84.110254 0 26.034664-4.945006 52.385447-14.744697 78.37495-8.602955 22.805733-21.179978 45.995325-37.369791 68.913958-30.59581 43.330893-68.733319 78.126571-93.932525 101.135524l-2.641852 2.416053c-20.005821 18.289746-69.207497 55.501477-116.805998 91.471312l-0.15806 0.15806c-33.147343 25.018567-67.378523 50.962911-94.632503 72.617067-11.583506 9.167453-20.773539 16.663991-28.089438 22.918633-7.338479-6.232062-16.505932-13.7286-28.089438-22.918633-27.27656-21.654157-61.57548-47.575921-94.745402-72.684807l-0.06774-0.09032c-47.575921-35.969835-96.777596-73.181566-116.783418-91.471312l-2.709592-2.461213c-25.221786-23.054112-63.291555-57.87237-93.909945-101.135524-16.189813-22.963793-28.766836-46.130805-37.369791-68.936538-9.777111-25.921764-14.722117-52.249967-14.722117-78.284631 0-28.947475 4.809526-57.240132 14.360838-84.110254 9.393252-26.486262 22.850893-50.195193 40.011643-70.449394 17.363969-20.43484 37.776229-36.421433 60.649702-47.485601 24.160529-11.696406 50.691951-17.612348 78.826549-17.612348 27.005601 0 52.137067 4.719206 74.649261 14.067299 17.770408 7.361058 34.0957 17.612348 48.546858 30.505491 8.354576 7.451378 15.986593 15.715634 22.692834 24.544388l48.659757 63.991533 48.637178-63.991533c6.70624-8.828754 14.338258-17.09301 22.692834-24.544388 14.451158-12.893142 30.79903-23.144432 48.546858-30.505491C654.411643 196.919603 679.520529 192.177817 706.54871 192.177817M706.54871 131.076516c-35.089217 0-68.078501 6.299802-98.042073 18.718765-24.115369 10.002911-46.266284 23.91215-65.843087 41.389019-12.960882 11.538346-23.076692 23.167012-30.66355 33.169923-7.564278-9.980331-17.702668-21.608997-30.66355-33.169923-19.576803-17.476869-41.727718-31.386108-65.843087-41.389019-29.963572-12.418964-62.952856-18.718765-98.042073-18.718765-37.41495 0-72.888026 7.993297-105.403131 23.708931C181.429768 169.575303 154.288688 190.777861 131.392635 217.760882c-21.992856 25.899184-39.153605 56.020816-51.03065 89.529438-11.854465 33.440882-17.860728 68.597839-17.860728 104.522514 0 33.418302 6.277222 67.039824 18.673605 99.871047 10.431929 27.637839 25.425006 55.433738 44.640529 82.619978 34.411819 48.659757 75.439559 86.165028 102.580639 111.002955l2.687012 2.461213c22.128335 20.209041 70.223594 56.607894 121.141345 95.061521 32.921544 24.950827 66.972084 50.691951 93.684146 71.917089 34.795678 27.570099 44.595369 37.66333 47.327541 40.98258 8.422315 7.654598 10.09323 13.254421 18.741345 13.254421 8.670695 0 11.764146-7.812657 18.763925-13.254421 2.732172-3.31925 12.531863-13.435061 47.327541-40.98258 26.734642-21.202558 60.762602-46.943682 93.661566-71.917089 50.940331-38.453627 99.05817-74.852481 121.163925-95.061521l2.596692-2.393473c27.16366-24.837927 68.21398-62.320617 102.625799-111.002955 19.215524-27.20882 34.25376-54.982139 44.685689-82.619978 12.396384-32.876384 18.673605-66.520485 18.673605-99.938787 0-35.924675-6.006262-71.081632-17.838148-104.522514-11.899625-33.486042-29.060375-63.607674-51.05323-89.529438-22.918633-26.983021-50.037133-48.185579-80.655524-62.975436C779.436736 139.069813 743.96366 131.076516 706.54871 131.076516L706.54871 131.076516 706.54871 131.076516zM706.54871 131.076516" p-id="3468" fill="#31c27c"></path></svg>