<?xml version="1.0" standalone="no"?><!DOCTYPE svg PUBLIC "-//W3C//DTD SVG 1.1//EN" "http://www.w3.org/Graphics/SVG/1.1/DTD/svg11.dtd"><svg t="1526549302048" class="icon" style="" viewBox="0 0 1024 1024" version="1.1" xmlns="http://www.w3.org/2000/svg" p-id="6073" xmlns:xlink="http://www.w3.org/1999/xlink" width="30" height="30"><defs><style type="text/css"></style></defs><path d="M902.836453 788.242532l0.002047-0.027629 0-0.001023c0-8.088212-3.349281-16.187681-9.06547-21.903869l-85.375459-85.375459c-28.250414-28.250414-72.058153 15.556301-43.806715 43.806715l32.484855 32.492018L153.287175 757.233284c-39.953967 0-39.953967 61.959144 0 61.959144l718.571752 0C888.637056 819.193451 902.821103 805.01759 902.836453 788.242532z" p-id="6074" fill="#31c27c"></path><path d="M759.588935 271.402293l112.271016 0c26.963095 0 41.037648-33.758871 21.914102-52.883441l-85.375459-85.375459c-28.274974-28.227901-72.061222 15.572674-43.806715 43.827181l32.472576 32.472576-37.474496 0C719.632921 209.44315 719.632921 271.402293 759.588935 271.402293z" p-id="6075" fill="#31c27c"></path><path d="M636.084063 271.402293l22.448268 0c39.956014 0 39.956014-61.959144 0-61.959144l-22.448268 0C596.128049 209.44315 596.128049 271.402293 636.084063 271.402293z" p-id="6076" fill="#31c27c"></path><path d="M153.287175 271.402293l392.973116 0c39.956014 0 39.956014-61.959144 0-61.959144L153.287175 209.44315C113.332185 209.44315 113.332185 271.402293 153.287175 271.402293z" p-id="6077" fill="#31c27c"></path><path d="M902.839523 514.317789c0-8.092305-3.347235-16.184611-9.06547-21.903869l-85.375459-85.375459c-28.274974-28.227901-72.061222 15.572674-43.806715 43.827181l32.472576 32.472576L153.287175 483.338217c-39.956014 0-39.952944 61.959144 0 61.959144l718.571752 0c16.785292 0 30.979572-14.192234 30.979572-30.978549L902.838499 514.317789z" p-id="6078" fill="#31c27c"></path></svg>