<?xml version="1.0" standalone="no"?><!DOCTYPE svg PUBLIC "-//W3C//DTD SVG 1.1//EN" "http://www.w3.org/Graphics/SVG/1.1/DTD/svg11.dtd"><svg t="1526548874097" class="icon" style="" viewBox="0 0 1024 1024" version="1.1" xmlns="http://www.w3.org/2000/svg" p-id="5179" xmlns:xlink="http://www.w3.org/1999/xlink" width="30" height="30"><defs><style type="text/css"></style></defs><path d="M91.072958 277.367145l144.50918 0c66.779672 0 130.874076 28.683273 175.849248 78.709643 5.462638 6.082532 13.013931 9.172917 20.593878 9.172917 6.594462 0 13.208367-2.335185 18.498059-7.099698 11.371456-10.214642 12.303727-27.719318 2.082516-39.09132-55.456314-61.677734-134.561203-97.0565-217.023701-97.0565L91.072958 222.002187c-15.291906 0-27.680571 12.386098-27.680571 27.682479C63.392386 264.97593 75.780028 277.367145 91.072958 277.367145z" p-id="5180" fill="#31c27c"></path><path d="M742.670062 278.467199l0 73.252351c0 30.842449 21.11681 42.255383 46.926699 25.397437l148.041781-96.768951c25.808866-16.8559 25.808866-44.472887 0-61.328787l-148.041781-96.766904c-25.808866-16.854876-46.926699-5.446036-46.926699 25.39232l0 75.455529C591.742436 234.271628 472.278703 360.343975 472.278703 514.064009c0 63.225997-24.626897 122.664737-69.330882 167.363775-44.697844 44.688805-104.124753 69.297272-167.334983 69.297272-0.007163 0-0.02456 0-0.031724 0L91.072958 750.725056c-15.291906 0-27.680571 12.390191-27.680571 27.683503-0.01228 15.285125 12.387641 27.680433 27.680571 27.680433l144.50918 0.01842c161.047526 0 292.064871-131.012869 292.064871-292.043403C527.647009 390.865105 622.284291 289.468764 742.670062 278.467199z" p-id="5181" fill="#31c27c"></path><path d="M937.637519 747.760538l-148.041781-96.763834c-25.808866-16.86204-46.926699-5.445012-46.926699 25.39232l0 68.994374c-1.69569 1.116427-3.231737 2.427282-4.730943 3.783163-57.036365-6.495948-110.435747-33.749662-149.445816-77.123518-10.226328-11.359722-27.728669-12.278651-39.096031-2.064009-11.371456 10.223852-12.29554 27.728528-2.067165 39.1036 48.816824 54.260811 115.948529 88.096431 187.546129 95.449909 2.312769 2.607384 4.871142 4.974291 7.793827 6.89606l0 69.035306c0 30.835286 21.11681 42.25436 46.926699 25.39232l148.041781-96.763834C963.447407 792.232402 963.447407 764.621555 937.637519 747.760538z" p-id="5182" fill="#31c27c"></path></svg>