<?xml version="1.0" standalone="no"?><!DOCTYPE svg PUBLIC "-//W3C//DTD SVG 1.1//EN" "http://www.w3.org/Graphics/SVG/1.1/DTD/svg11.dtd"><svg t="1528118979053" class="icon" style="" viewBox="0 0 1024 1024" version="1.1" xmlns="http://www.w3.org/2000/svg" p-id="1677" xmlns:xlink="http://www.w3.org/1999/xlink" width="32" height="32"><defs><style type="text/css"></style></defs><path d="M624.5 518.1c77.6-40.2 130.8-121.3 130.8-214.5 0-133.1-108.3-241.4-241.4-241.4S272.5 170.5 272.5 303.6c0 93.3 53.2 174.3 130.8 214.5C249.3 573.2 130.9 738 130.9 921c0 20.5 16.6 37.1 37.1 37.1s37.1-16.6 37.1-37.1c0-182.2 147.1-348.2 308.7-348.2s308.7 166 308.7 348.2c0 20.5 16.6 37.1 37.1 37.1s37.1-16.6 37.1-37.1c0.2-183-118.2-347.7-272.2-402.9zM346.8 303.6c0-92.2 75-167.1 167.1-167.1S681 211.4 681 303.6s-75 167.1-167.1 167.1-167.1-74.9-167.1-167.1z" p-id="1678" fill="#ffffff"></path></svg>