<?xml version="1.0" standalone="no"?><!DOCTYPE svg PUBLIC "-//W3C//DTD SVG 1.1//EN" "http://www.w3.org/Graphics/SVG/1.1/DTD/svg11.dtd"><svg t="1526386779157" class="icon" style="" viewBox="0 0 1024 1024" version="1.1" xmlns="http://www.w3.org/2000/svg" p-id="1684" xmlns:xlink="http://www.w3.org/1999/xlink" width="30" height="30"><defs><style type="text/css"></style></defs><path d="M526.523733 87.927467c-235.246933 0-426.666667 191.419733-426.666666 426.666666s191.419733 426.666667 426.666666 426.666667 426.666667-191.419733 426.666667-426.666667-191.402667-426.666667-426.666667-426.666666z m0 804.642133c-208.418133 0-377.975467-169.540267-377.975466-377.975467 0-208.418133 169.540267-377.975467 377.975466-377.975466 208.418133 0 377.975467 169.540267 377.975467 377.975466s-169.540267 377.975467-377.975467 377.975467z" fill="#31c27c" p-id="1685"></path><path d="M304.657067 390.365867h230.741333v26.914133h-230.741333v-26.914133zM304.657067 470.237867h230.741333v26.914133h-230.741333v-26.914133zM304.657067 550.109867h230.741333v26.914133h-230.741333v-26.914133z" fill="#31c27c" p-id="1686"></path><path d="M624.145067 400.981333l124.245333 16.008534c0-88.746667-70.997333-106.496-141.994667-124.2624V629.9648h-54.6816c-52.1728 0-69.563733 27.5968-69.563733 52.804267 0 21.384533 16.008533 53.674667 70.997333 53.674666 78.626133 0 70.997333-63.1296 70.997334-106.496V400.981333z" fill="#31c27c" p-id="1687"></path></svg>