<?xml version="1.0" standalone="no"?><!DOCTYPE svg PUBLIC "-//W3C//DTD SVG 1.1//EN" "http://www.w3.org/Graphics/SVG/1.1/DTD/svg11.dtd"><svg t="1526385065610" class="icon" style="" viewBox="0 0 1024 1024" version="1.1" xmlns="http://www.w3.org/2000/svg" p-id="5022" xmlns:xlink="http://www.w3.org/1999/xlink" width="24" height="24"><defs><style type="text/css"></style></defs><path d="M292.571429 219.062857C292.571429 178.907429 325.010286 146.285714 365.714286 146.285714a73.142857 73.142857 0 0 1 73.142857 72.777143v585.874286c0 40.192-32.475429 72.777143-73.142857 72.777143a73.142857 73.142857 0 0 1-73.142857-72.777143V219.062857z m292.571428 0C585.142857 178.907429 617.581714 146.285714 658.285714 146.285714a73.142857 73.142857 0 0 1 73.142857 72.777143v585.874286c0 40.192-32.475429 72.777143-73.142857 72.777143a73.142857 73.142857 0 0 1-73.142857-72.777143V219.062857z" fill="#31c27c" p-id="5023"></path></svg>