<?xml version="1.0" standalone="no"?><!DOCTYPE svg PUBLIC "-//W3C//DTD SVG 1.1//EN" "http://www.w3.org/Graphics/SVG/1.1/DTD/svg11.dtd"><svg t="1525850746626" class="icon" style="" viewBox="0 0 1024 1024" version="1.1" xmlns="http://www.w3.org/2000/svg" p-id="1887" xmlns:xlink="http://www.w3.org/1999/xlink" width="48" height="48"><defs><style type="text/css"></style></defs><path d="M512-2.5845333333331837c283.74826666666667 0 514.5845333333334 230.864 514.5845333333335 514.5845333333335 0 283.74826666666667-230.83733333333342 514.5845333333335-514.5845333333335 514.5845333333335-283.7194666666668 0-514.5845333333335-230.83733333333342-514.5845333333335-514.5845333333335 0-283.7194666666668 230.864-514.5845333333334 514.5845333333335-514.5845333333335zM512 954.368c243.9093333333334 0 442.36800000000017-198.43306666666672 442.36800000000017-442.36800000000017s-198.4330666666667-442.42453333333344-442.36800000000017-442.42453333333344-442.3978666666667 198.5173333333333-442.39786666666674 442.4245333333335 198.46186666666674 442.36800000000017 442.3978666666668 442.36800000000017z" p-id="1888" fill="#31c27c"></path><path d="M315.94133333333343 297.9210666666668l0 396.46293333333347 314.4650666666667-205.04000000000002-314.4650666666667-191.42400000000004z" p-id="1889" fill="#31c27c"></path><path d="M630.3776 297.9210666666668l0 369.0944 54.68266666666669 0 0-369.0944-54.68266666666669 0z" p-id="1890" fill="#31c27c"></path></svg>