<?xml version="1.0" standalone="no"?><!DOCTYPE svg PUBLIC "-//W3C//DTD SVG 1.1//EN" "http://www.w3.org/Graphics/SVG/1.1/DTD/svg11.dtd"><svg t="1525854888106" class="icon" style="" viewBox="0 0 1030 1024" version="1.1" xmlns="http://www.w3.org/2000/svg" p-id="4674" xmlns:xlink="http://www.w3.org/1999/xlink" width="32.1875" height="32"><defs><style type="text/css"></style></defs><path d="M930.849032 476.655484c-19.323871 0-32.04129 12.882581-32.04129 32.04129v86.709678c0 109.171613-86.709677 199.019355-199.019355 199.019354H202.322581l41.785806-38.48258c6.44129-6.44129 12.882581-16.020645 12.882581-25.6 0-19.323871-16.020645-35.344516-35.344516-35.344516-9.579355 0-22.461935 3.138065-28.903226 9.579355l-109.171613 99.427096c-16.020645 12.882581-12.882581 35.344516 0 48.061936l109.171613 96.289032c6.44129 6.44129 19.323871 12.882581 28.903226 12.882581 19.323871 0 35.344516-12.882581 38.48258-32.041291 0-12.882581-6.44129-22.461935-16.020645-28.903225l-48.061935-44.923871h500.603871c147.654194 0 266.405161-118.750968 266.405161-259.963871V508.696774c-0.165161-19.15871-13.047742-32.04129-32.206452-32.04129zM96.454194 556.923871c19.323871 0 32.04129-12.882581 32.04129-32.04129v-89.847742c0-112.309677 89.847742-202.157419 199.019355-205.295484h497.465806l-41.785806 38.48258c-6.44129 6.44129-12.882581 16.020645-12.882581 25.6 0 19.323871 16.020645 35.344516 35.344516 35.344517 9.579355 0 22.461935-3.138065 28.903226-9.579355l105.868387-99.427097c16.020645-12.882581 12.882581-35.344516 0-48.061935l-109.171613-96.289033c-6.44129-6.44129-19.323871-12.882581-28.903226-12.88258-19.323871 0-35.344516 12.882581-38.48258 32.04129 0 12.882581 6.44129 22.461935 16.020645 28.903226l48.061935 44.923871h-497.135483C183.163871 168.629677 64.412903 287.380645 64.412903 438.172903v86.709678c0 19.15871 12.882581 32.04129 32.041291 32.04129z m0 0" p-id="4675" fill="#31c27c"></path><path d="M545.692903 672.371613V351.463226h-48.061935l-80.268387 57.806451 16.020645 41.785807 60.944516-41.785807v263.101936h51.365161z m0 0" p-id="4676" fill="#31c27c"></path></svg>