<?xml version="1.0" standalone="no"?><!DOCTYPE svg PUBLIC "-//W3C//DTD SVG 1.1//EN" "http://www.w3.org/Graphics/SVG/1.1/DTD/svg11.dtd"><svg t="1528901049820" class="icon" style="" viewBox="0 0 1024 1024" version="1.1" xmlns="http://www.w3.org/2000/svg" p-id="2217" xmlns:xlink="http://www.w3.org/1999/xlink" width="20" height="20"><defs><style type="text/css"></style></defs><path d="M512 841.142857C204.8 841.142857 21.942857 541.257143 14.628571 533.942857L0 512l14.628571-21.942857C21.942857 475.428571 204.8 182.857143 512 182.857143s490.057143 299.885714 497.371429 307.2l14.628571 21.942857-14.628571 21.942857c-7.314286 7.314286-190.171429 307.2-497.371429 307.2zM87.771429 512c43.885714 58.514286 197.485714 256 424.228571 256s380.342857-197.485714 424.228571-256c-43.885714-58.514286-197.485714-256-424.228571-256S131.657143 453.485714 87.771429 512z" fill="#515151" p-id="2218"></path><path d="M512 694.857143C409.6 694.857143 329.142857 614.4 329.142857 512S409.6 329.142857 512 329.142857 694.857143 409.6 694.857143 512 614.4 694.857143 512 694.857143z m0-292.571429c-58.514286 0-109.714286 51.2-109.714286 109.714286S453.485714 621.714286 512 621.714286 621.714286 570.514286 621.714286 512 570.514286 402.285714 512 402.285714z" fill="#515151" p-id="2219"></path></svg>