<?xml version="1.0" standalone="no"?><!DOCTYPE svg PUBLIC "-//W3C//DTD SVG 1.1//EN" "http://www.w3.org/Graphics/SVG/1.1/DTD/svg11.dtd"><svg t="1528901037396" class="icon" style="" viewBox="0 0 1024 1024" version="1.1" xmlns="http://www.w3.org/2000/svg" p-id="1852" xmlns:xlink="http://www.w3.org/1999/xlink" width="20" height="20"><defs><style type="text/css"></style></defs><path d="M512 760.685714c-226.742857 0-380.342857-197.485714-424.228571-256 21.942857-36.571429 80.457143-102.4 160.914285-160.914285L197.485714 292.571429C80.457143 380.342857 21.942857 482.742857 14.628571 490.057143l-14.628571 14.628571 14.628571 21.942857c7.314286 14.628571 190.171429 307.2 497.371429 307.2 73.142857 0 131.657143-14.628571 190.171429-36.571428l-58.514286-58.514286c-43.885714 14.628571-87.771429 21.942857-131.657143 21.942857zM1009.371429 526.628571l14.628571-21.942857-14.628571-21.942857c-7.314286-14.628571-190.171429-307.2-497.371429-307.2-65.828571 0-131.657143 14.628571-182.857143 36.571429l58.514286 58.514285c36.571429-14.628571 80.457143-21.942857 131.657143-21.942857 226.742857 0 380.342857 197.485714 424.228571 256-21.942857 29.257143-80.457143 102.4-153.6 160.914286l51.2 51.2c102.4-80.457143 168.228571-182.857143 168.228572-190.171429z" fill="#515151" p-id="1853"></path><path d="M512 687.542857c21.942857 0 43.885714-7.314286 65.828571-14.628571l-58.514285-58.514286H512c-58.514286 0-109.714286-51.2-109.714286-109.714286v-7.314285L343.771429 438.857143c-7.314286 21.942857-14.628571 43.885714-14.628572 65.828571 0 102.4 80.457143 182.857143 182.857143 182.857143zM512 394.971429c58.514286 0 109.714286 51.2 109.714286 109.714285V512l58.514285 58.514286c7.314286-21.942857 14.628571-43.885714 14.628572-65.828572 0-102.4-80.457143-182.857143-182.857143-182.857143-21.942857 0-43.885714 7.314286-65.828571 14.628572l65.828571 58.514286zM93.037714 142.482286l51.712-51.712 781.019429 780.946285-51.785143 51.785143z" fill="#515151" p-id="1854"></path></svg>