<?xml version="1.0" standalone="no"?><!DOCTYPE svg PUBLIC "-//W3C//DTD SVG 1.1//EN" "http://www.w3.org/Graphics/SVG/1.1/DTD/svg11.dtd"><svg t="1525851413373" class="icon" style="" viewBox="0 0 1024 1024" version="1.1" xmlns="http://www.w3.org/2000/svg" p-id="3496" xmlns:xlink="http://www.w3.org/1999/xlink" width="64" height="64"><defs><style type="text/css"></style></defs><path d="M512 1024A512 512 0 1 1 512 0a512 512 0 0 1 0 1024z m0-68.266667A443.733333 443.733333 0 1 0 512 68.266667a443.733333 443.733333 0 0 0 0 887.466666z m-42.666667-209.066666c0 11.776-12.970667 21.333333-28.757333 21.333333H327.424c-15.786667 0-28.757333-9.557333-28.757333-21.333333v-469.333334c0-11.776 12.970667-21.333333 28.757333-21.333333h113.152c15.786667 0 28.757333 9.557333 28.757333 21.333333v469.333334z m256 0c0 11.776-12.970667 21.333333-28.757333 21.333333H583.424c-15.786667 0-28.757333-9.557333-28.757333-21.333333v-469.333334c0-11.776 12.970667-21.333333 28.757333-21.333333h113.152c15.786667 0 28.757333 9.557333 28.757333 21.333333v469.333334z" fill="#31c27c" p-id="3497"></path></svg>