<?xml version="1.0" standalone="no"?><!DOCTYPE svg PUBLIC "-//W3C//DTD SVG 1.1//EN" "http://www.w3.org/Graphics/SVG/1.1/DTD/svg11.dtd"><svg t="1525850726265" class="icon" style="" viewBox="0 0 1024 1024" version="1.1" xmlns="http://www.w3.org/2000/svg" p-id="1665" xmlns:xlink="http://www.w3.org/1999/xlink" width="48" height="48"><defs><style type="text/css"></style></defs><path d="M512 994.423c-266.014 0-482.423-216.435-482.423-482.423 0-266.014 216.41-482.423 482.423-482.423 265.987 0 482.423 216.41 482.423 482.423 0 265.987-216.435 482.423-482.423 482.423zM512 97.28c-228.665 0-414.72 186.031-414.72 414.72s186.031 414.773 414.72 414.773 414.748-186.11 414.748-414.773-186.058-414.72-414.748-414.72z" p-id="1666" fill="#31c27c"></path><path d="M695.805 712.699v-371.684l-294.811 192.225 294.811 179.46z" p-id="1667" fill="#31c27c"></path><path d="M401.021 712.699v-346.026h-51.265v346.026h51.265z" p-id="1668" fill="#31c27c"></path></svg>